<?xml version="1.0" encoding="utf-8"?>
<!-- Generator: Adobe Illustrator 27.1.1, SVG Export Plug-In . SVG Version: 6.00 Build 0)  -->
<svg version="1.1" id="Layer_1" xmlns="http://www.w3.org/2000/svg" xmlns:xlink="http://www.w3.org/1999/xlink" x="0px" y="0px"
	 viewBox="0 0 134 33" style="enable-background:new 0 0 134 33;" xml:space="preserve">
<style type="text/css">
	.st0{fill:#111111;}
	.st1{fill:#CF2030;}
</style>
<path class="st0" d="M20.8,11.9h-0.9v16.9h0.9V11.9z"/>
<path class="st1" d="M29,4.8H12.3v0.9H29V4.8z"/>
<path class="st1" d="M28.3,4.4h-0.9v16.9h0.9V4.4z"/>
<path class="st1" d="M13.2,5.2h-0.9v16.9h0.9V5.2z"/>
<path class="st1" d="M10.1,12.1L5.9,7.9C5.7,7.7,5.5,7.6,5.2,7.6c-0.3,0-0.5,0.1-0.7,0.3l-4.2,4.2c-0.4,0.4-0.4,1,0,1.5l4.2,4.2
	C4.7,17.9,4.9,18,5.2,18c0.3,0,0.5-0.1,0.7-0.3l4.2-4.2C10.5,13.1,10.5,12.5,10.1,12.1z"/>
<path class="st1" d="M13.5,0.3C13.3,0.1,13,0,12.8,0c-0.3,0-0.5,0.1-0.7,0.3L7.9,4.5c-0.4,0.4-0.4,1,0,1.5l4.2,4.2
	c0.2,0.2,0.4,0.3,0.7,0.3c0.3,0,0.5-0.1,0.7-0.3l4.2-4.2c0.4-0.4,0.4-1,0-1.5L13.5,0.3z"/>
<path class="st1" d="M13.5,15.3C13.3,15.2,13,15,12.8,15c-0.3,0-0.5,0.1-0.7,0.3l-4.2,4.2c-0.4,0.4-0.4,1,0,1.5l4.2,4.2
	c0.2,0.2,0.4,0.3,0.7,0.3c0.3,0,0.5-0.1,0.7-0.3l4.2-4.2c0.4-0.4,0.4-1,0-1.5L13.5,15.3z"/>
<path class="st1" d="M27.1,10.1c0.2,0.2,0.4,0.3,0.7,0.3c0.3,0,0.5-0.1,0.7-0.3l4.2-4.2c0.4-0.4,0.4-1,0-1.5l-4.2-4.2
	C28.3,0.1,28.1,0,27.8,0c-0.3,0-0.5,0.1-0.7,0.3l-4.2,4.2c-0.4,0.4-0.4,1,0,1.5L27.1,10.1z"/>
<path class="st1" d="M28.5,15.3c-0.2-0.2-0.4-0.3-0.7-0.3c-0.3,0-0.5,0.1-0.7,0.3l-4.2,4.2c-0.4,0.4-0.4,1,0,1.5l4.2,4.2
	c0.2,0.2,0.4,0.3,0.7,0.3c0.3,0,0.5-0.1,0.7-0.3l4.2-4.2c0.4-0.4,0.4-1,0-1.5L28.5,15.3z"/>
<path class="st0" d="M20.6,27.3H3.8v0.9h16.8V27.3z"/>
<path class="st0" d="M19.7,17.7c0.2,0.2,0.4,0.3,0.7,0.3c0.3,0,0.5-0.1,0.7-0.3l4.2-4.2c0.4-0.4,0.4-1,0-1.5l-4.2-4.2
	c-0.2-0.2-0.4-0.3-0.7-0.3c-0.3,0-0.5,0.1-0.7,0.3l-4.2,4.2c-0.4,0.4-0.4,1,0,1.5L19.7,17.7z"/>
<path class="st0" d="M21.1,22.9c-0.2-0.2-0.4-0.3-0.7-0.3c-0.3,0-0.5,0.1-0.7,0.3l-4.2,4.2c-0.4,0.4-0.4,1,0,1.5l4.2,4.2
	c0.2,0.2,0.4,0.3,0.7,0.3c0.3,0,0.5-0.1,0.7-0.3l4.2-4.2c0.4-0.4,0.4-1,0-1.5L21.1,22.9z"/>
<path class="st0" d="M5.9,22.9c-0.2-0.2-0.4-0.3-0.7-0.3c-0.3,0-0.5,0.1-0.7,0.3l-4.2,4.2c-0.4,0.4-0.4,1,0,1.5l4.2,4.2
	C4.7,32.9,4.9,33,5.2,33c0.3,0,0.5-0.1,0.7-0.3l4.2-4.2c0.4-0.4,0.4-1,0-1.5L5.9,22.9z"/>
<path class="st0" d="M54.7,27.1L42.9,10.1c-0.1-0.2-0.3-0.4-0.4-0.7c-0.1-0.2-0.3-0.4-0.4-0.7h-0.1c0,0.2,0,0.4,0.1,0.7
	c0,0.3,0,0.7,0,1.2v16.5h-2V5.9h2.2L54,22.7c0.2,0.3,0.3,0.5,0.5,0.7c0.1,0.2,0.3,0.4,0.4,0.6h0.1c0-0.3-0.1-0.7-0.1-1.1
	s0-0.8,0-1.3V5.9h2v21.3L54.7,27.1L54.7,27.1z"/>
<path class="st0" d="M62.3,27.1V5.9h10.4v1.8h-8.4v7.8h7.8v1.8h-7.8v8.1h8.9v1.8H62.3z"/>
<path class="st0" d="M83.7,7.7v19.5h-2V7.7h-6.1V5.9h14.3v1.8H83.7z"/>
<path class="st0" d="M92.5,24c0.4,0.3,0.7,0.5,1.2,0.7c0.4,0.2,0.9,0.4,1.3,0.5c0.4,0.1,0.9,0.2,1.4,0.3c0.5,0.1,0.9,0.1,1.3,0.1
	c1.6,0,2.8-0.3,3.6-0.9c0.8-0.6,1.2-1.5,1.2-2.7c0-0.6-0.1-1.1-0.3-1.5c-0.2-0.4-0.5-0.8-0.9-1.2c-0.4-0.4-0.9-0.7-1.5-1.1
	c-0.6-0.4-1.3-0.8-2.1-1.2c-0.9-0.5-1.7-1-2.3-1.4c-0.7-0.4-1.2-0.9-1.6-1.3c-0.4-0.5-0.7-1-0.9-1.5c-0.2-0.5-0.3-1.2-0.3-1.8
	c0-0.9,0.2-1.6,0.5-2.3C93.5,8,94,7.5,94.7,7c0.6-0.5,1.3-0.8,2.2-1.1c0.8-0.3,1.7-0.4,2.7-0.4c1.7,0,3.1,0.2,4.2,0.7v2.2
	c-1.3-0.7-2.7-1.1-4.4-1.1c-0.6,0-1.2,0.1-1.8,0.2c-0.6,0.2-1,0.4-1.5,0.7c-0.4,0.3-0.7,0.7-1,1.1c-0.2,0.4-0.4,1-0.4,1.5
	c0,0.5,0.1,1,0.2,1.4c0.2,0.4,0.4,0.8,0.8,1.1c0.4,0.4,0.8,0.7,1.4,1.1c0.6,0.4,1.3,0.8,2.2,1.2c0.9,0.5,1.7,0.9,2.3,1.4
	c0.7,0.4,1.2,0.9,1.6,1.4c0.4,0.5,0.8,1,1,1.6c0.2,0.5,0.3,1.2,0.3,1.8c0,0.9-0.2,1.8-0.5,2.5c-0.4,0.7-0.8,1.3-1.5,1.8
	c-0.6,0.5-1.4,0.8-2.2,1.1c-0.9,0.2-1.8,0.4-2.8,0.4c-0.3,0-0.7,0-1.2-0.1c-0.5-0.1-0.9-0.1-1.4-0.2c-0.5-0.1-0.9-0.2-1.4-0.4
	c-0.4-0.1-0.8-0.3-1-0.5L92.5,24L92.5,24z"/>
<path class="st0" d="M110.9,7.7V17h2.8c1.8,0,3.2-0.4,4.2-1.3s1.4-2.1,1.4-3.6c0-3-1.8-4.5-5.3-4.5H110.9z M110.9,18.9v8.3h-2V5.9
	h5.5c1.1,0,2.1,0.1,3,0.4c0.9,0.3,1.6,0.7,2.2,1.2c0.6,0.5,1,1.2,1.3,1.9c0.3,0.8,0.5,1.6,0.5,2.6s-0.2,1.9-0.5,2.7
	c-0.4,0.8-0.8,1.6-1.5,2.2c-0.7,0.6-1.4,1.1-2.4,1.4c-0.9,0.3-2,0.5-3.2,0.5L110.9,18.9L110.9,18.9z"/>
<path class="st0" d="M127.7,5.9h-2v21.3h2V5.9z"/>
<path class="st0" d="M129.9,7.9c0-1.1,0.9-2,2-2c1.1,0,2,0.9,2,2c0,1.1-0.9,2-2,2C130.8,9.9,129.9,9,129.9,7.9z M130.2,7.9
	c0,0.9,0.8,1.7,1.7,1.7s1.7-0.8,1.7-1.7c0-1-0.8-1.7-1.7-1.7C130.9,6.1,130.2,6.9,130.2,7.9z M132.5,9l-0.6-0.9h-0.4V9h-0.3V6.7h0.9
	c0.4,0,0.7,0.3,0.7,0.7c0,0.5-0.5,0.7-0.6,0.7l0.6,0.9L132.5,9L132.5,9z M131.4,7v0.8h0.6c0.2,0,0.4-0.2,0.4-0.4
	c0-0.3-0.2-0.4-0.4-0.4H131.4z"/>
</svg>
